<svg width="189" height="29" viewBox="0 0 189 29" fill="none" xmlns="http://www.w3.org/2000/svg">
<g clip-path="url(#clip0_804_19012)">
<path d="M0 0V28.9715L7.41691 21.5519V7.41691L0 0Z" fill="black"/>
<path d="M14.6045 14.6045L10.8975 10.8975V28.9715L18.3144 21.5518V10.8975L14.6045 14.6045Z" fill="black"/>
<path d="M21.795 7.41691V28.9715L29.2119 21.5519V0L21.795 7.41691Z" fill="black"/>
<path d="M50.9129 21.3584H53.8299V12.4415L57.5978 18.2563H57.6751L61.4816 12.3835V21.3612H64.4373V7.61019H61.2303L57.6751 13.4249L54.12 7.61019H50.9129V21.3584V21.3584ZM76.3127 21.3584H86.6107V18.6679H79.2684V15.7812H85.6439V13.0907H79.2684V10.3007H86.514V7.61019H76.3127V21.3584ZM102.699 21.5545C105.616 21.5545 107.663 20.0214 107.663 17.2922V17.2536C107.663 14.8558 106.116 13.8559 103.373 13.1294C101.036 12.5216 100.456 12.2261 100.456 11.3228V11.2841C100.456 10.6156 101.055 10.0853 102.193 10.0853C103.331 10.0853 104.511 10.5963 105.71 11.4416L107.257 9.16263C105.884 8.04388 104.204 7.41406 102.235 7.41406C99.4722 7.41406 97.4999 9.06319 97.4999 11.5576V11.5963C97.4999 14.3255 99.2568 15.0934 101.983 15.8006C104.243 16.3889 104.707 16.784 104.707 17.5491V17.5878C104.707 18.3944 103.972 18.8833 102.757 18.8833C101.21 18.8833 99.9363 18.2342 98.7181 17.2149L96.9585 19.3557C98.5827 20.828 100.649 21.5545 102.696 21.5545M123.977 21.5545C126.894 21.5545 128.941 20.0214 128.941 17.2922V17.2536C128.941 14.8558 127.397 13.8559 124.651 13.1294C122.314 12.5216 121.734 12.2261 121.734 11.3228V11.2841C121.734 10.6156 122.333 10.0853 123.472 10.0853C124.61 10.0853 125.789 10.5963 126.988 11.4416L128.535 9.16263C127.162 8.04388 125.483 7.41406 123.51 7.41406C120.748 7.41406 118.778 9.06319 118.778 11.5576V11.5963C118.778 14.3255 120.535 15.0934 123.262 15.8006C125.521 16.3889 125.985 16.784 125.985 17.5491V17.5878C125.985 18.3944 125.25 18.8833 124.035 18.8833C122.488 18.8833 121.215 18.2342 119.996 17.2149L118.24 19.3557C119.864 20.828 121.93 21.5545 123.977 21.5545M138.714 21.3584H141.747L142.985 18.2756H148.703L149.94 21.3584H153.051L147.255 7.51074H144.512L138.717 21.3584H138.714ZM144.046 15.6044L145.841 11.146L147.637 15.6044H144.043H144.046ZM163.288 21.3584H166.263V16.958H168.6L171.498 21.3584H174.976L171.672 16.4469C173.39 15.7978 174.569 14.4028 174.569 12.1846V12.146C174.569 10.8504 174.163 9.76758 173.409 9.00241C172.52 8.09913 171.188 7.60743 169.467 7.60743H163.285V21.3556L163.288 21.3584ZM166.263 14.2868V10.3394H169.219C170.669 10.3394 171.556 11.0079 171.556 12.3034V12.3421C171.556 13.5023 170.724 14.2868 169.277 14.2868H166.263V14.2868ZM186.022 21.3584H188.997V7.61019H186.022V21.3584V21.3584Z" fill="black"/>
</g>
<defs>
<clipPath id="clip0_804_19012">
<rect width="189" height="28.9715" fill="white"/>
</clipPath>
</defs>
</svg>
